<?xml version="1.0" standalone="no"?><svg xmlns="http://www.w3.org/2000/svg" viewBox="0 0 1440 320"><path fill="#e2edff" fill-opacity="1" d="M0,320L6.2,304C12.3,288,25,256,37,245.3C49.2,235,62,245,74,229.3C86.2,213,98,171,111,138.7C123.1,107,135,85,148,117.3C160,149,172,235,185,234.7C196.9,235,209,149,222,101.3C233.8,53,246,43,258,80C270.8,117,283,203,295,234.7C307.7,267,320,245,332,229.3C344.6,213,357,203,369,202.7C381.5,203,394,213,406,218.7C418.5,224,431,224,443,218.7C455.4,213,468,203,480,181.3C492.3,160,505,128,517,138.7C529.2,149,542,203,554,234.7C566.2,267,578,277,591,272C603.1,267,615,245,628,202.7C640,160,652,96,665,80C676.9,64,689,96,702,133.3C713.8,171,726,213,738,224C750.8,235,763,213,775,197.3C787.7,181,800,171,812,149.3C824.6,128,837,96,849,112C861.5,128,874,192,886,224C898.5,256,911,256,923,261.3C935.4,267,948,277,960,261.3C972.3,245,985,203,997,197.3C1009.2,192,1022,224,1034,229.3C1046.2,235,1058,213,1071,202.7C1083.1,192,1095,192,1108,208C1120,224,1132,256,1145,266.7C1156.9,277,1169,267,1182,240C1193.8,213,1206,171,1218,149.3C1230.8,128,1243,128,1255,144C1267.7,160,1280,192,1292,208C1304.6,224,1317,224,1329,218.7C1341.5,213,1354,203,1366,213.3C1378.5,224,1391,256,1403,250.7C1415.4,245,1428,203,1434,181.3L1440,160L1440,320L1433.8,320C1427.7,320,1415,320,1403,320C1390.8,320,1378,320,1366,320C1353.8,320,1342,320,1329,320C1316.9,320,1305,320,1292,320C1280,320,1268,320,1255,320C1243.1,320,1231,320,1218,320C1206.2,320,1194,320,1182,320C1169.2,320,1157,320,1145,320C1132.3,320,1120,320,1108,320C1095.4,320,1083,320,1071,320C1058.5,320,1046,320,1034,320C1021.5,320,1009,320,997,320C984.6,320,972,320,960,320C947.7,320,935,320,923,320C910.8,320,898,320,886,320C873.8,320,862,320,849,320C836.9,320,825,320,812,320C800,320,788,320,775,320C763.1,320,751,320,738,320C726.2,320,714,320,702,320C689.2,320,677,320,665,320C652.3,320,640,320,628,320C615.4,320,603,320,591,320C578.5,320,566,320,554,320C541.5,320,529,320,517,320C504.6,320,492,320,480,320C467.7,320,455,320,443,320C430.8,320,418,320,406,320C393.8,320,382,320,369,320C356.9,320,345,320,332,320C320,320,308,320,295,320C283.1,320,271,320,258,320C246.2,320,234,320,222,320C209.2,320,197,320,185,320C172.3,320,160,320,148,320C135.4,320,123,320,111,320C98.5,320,86,320,74,320C61.5,320,49,320,37,320C24.6,320,12,320,6,320L0,320Z"></path></svg>