<?xml version="1.0" standalone="no"?><svg xmlns="http://www.w3.org/2000/svg" viewBox="0 0 1440 320"><path fill="#fff" fill-opacity="1" d="M0,128L17.1,133.3C34.3,139,69,149,103,149.3C137.1,149,171,139,206,144C240,149,274,171,309,192C342.9,213,377,235,411,229.3C445.7,224,480,192,514,154.7C548.6,117,583,75,617,69.3C651.4,64,686,96,720,138.7C754.3,181,789,235,823,229.3C857.1,224,891,160,926,149.3C960,139,994,181,1029,176C1062.9,171,1097,117,1131,106.7C1165.7,96,1200,128,1234,154.7C1268.6,181,1303,203,1337,213.3C1371.4,224,1406,224,1423,224L1440,224L1440,320L1422.9,320C1405.7,320,1371,320,1337,320C1302.9,320,1269,320,1234,320C1200,320,1166,320,1131,320C1097.1,320,1063,320,1029,320C994.3,320,960,320,926,320C891.4,320,857,320,823,320C788.6,320,754,320,720,320C685.7,320,651,320,617,320C582.9,320,549,320,514,320C480,320,446,320,411,320C377.1,320,343,320,309,320C274.3,320,240,320,206,320C171.4,320,137,320,103,320C68.6,320,34,320,17,320L0,320Z"></path></svg>